<svg xmlns="http://www.w3.org/2000/svg" width="900" height="1390" viewBox="0 0 900 1390">
<rect width="900" height="1390" fill="#fffefa"/>
<style>text{font-family:Arial,sans-serif;fill:#273b43}.k{font-size:18px;font-weight:bold;fill:#287766}.h{font-size:33px;font-weight:bold}.s{font-size:20px;fill:#64747b}.b{font-size:22px}.t{font-size:22px;font-weight:bold}.small{font-size:18px}</style>
<text x="38" y="48" class="k">BRF REPRODUCTION · GRADED RESONATORS</text>
<text x="38" y="95" class="h">What should an event change?</text>
<text x="38" y="132" class="s">Four main arms; one independent, publishable implementation.</text>
<line x1="38" y1="157" x2="862" y2="157" stroke="#aab8b8"/>
<rect x="38" y="185" width="824" height="225" rx="8" fill="#e8f1ed" stroke="#b4ccc0"/>
<text x="60" y="222" class="t">1 · CURRENT AUDIO DESIGN</text>
<text x="60" y="260" class="b">linear membrane → nonlinear transmission</text>
<text x="60" y="295" class="b">separate event observation → persistent memory</text>
<text x="60" y="342" class="s">No event-triggered edit of the membrane in the proposal.</text>
<text x="60" y="375" class="s">This study tests the primitive; audio-embedding fusion stays open.</text>
<rect x="38" y="438" width="824" height="338" rx="8" fill="#eaf1f6" stroke="#b7cbd8"/>
<text x="60" y="477" class="t">2 · HOLD THE NETWORK FIXED</text>
<text x="60" y="520" class="small">EMISSION</text><text x="463" y="520" class="small">THRESHOLD</text><text x="660" y="520" class="small">DAMPING</text>
<line x1="60" y1="536" x2="838" y2="536" stroke="#9eb7c7"/>
<text x="60" y="574" class="b">Binary BRF</text><text x="463" y="574" class="b">adaptive</text><text x="660" y="574" class="b">adaptive</text>
<text x="60" y="621" class="b">Graded BRF</text><text x="463" y="621" class="b">adaptive</text><text x="660" y="621" class="b">adaptive</text>
<text x="60" y="668" class="b">Graded observation</text><text x="463" y="668" class="b">adaptive</text><text x="660" y="668" class="b">fixed</text>
<text x="60" y="715" class="b">Graded static</text><text x="463" y="715" class="b">fixed</text><text x="660" y="715" class="b">fixed</text>
<text x="60" y="751" class="small">Refractory state counts events; amplitude does not drive it.</text>
<rect x="38" y="804" width="824" height="238" rx="8" fill="#fbf1dc" stroke="#dac899"/>
<text x="60" y="843" class="t">3 · SHD COMPLETE · FIVE PAIRED SEEDS</text>
<text x="60" y="876" class="small">VARIANT</text><text x="435" y="876" class="small">ACCURACY ± SD (%)</text><text x="695" y="876" class="small">EVENTS (%)</text>
<text x="60" y="907" class="b">Binary BRF</text><text x="435" y="907" class="b">91.57 ± 0.90</text><text x="695" y="907" class="b">10.32</text>
<text x="60" y="938" class="b">Graded BRF</text><text x="435" y="938" class="b">90.40 ± 0.60</text><text x="695" y="938" class="b">5.17</text>
<text x="60" y="969" class="b">Graded observation</text><text x="435" y="969" class="b">89.60 ± 1.06</text><text x="695" y="969" class="b">4.57</text>
<text x="60" y="1000" class="b">Graded static</text><text x="435" y="1000" class="b">89.81 ± 0.61</text><text x="695" y="1000" class="b">6.41</text>
<text x="60" y="1028" class="small">Original rate · reduced activity, lower mean graded accuracy.</text>
<rect x="38" y="1070" width="824" height="230" rx="8" fill="#f0eeea" stroke="#c9c5bd"/>
<text x="60" y="1109" class="t">4 · WHAT REMAINS TO EXPLAIN?</text>
<text x="60" y="1148" class="b">Three other BRF tasks · precision and recovery</text>
<text x="60" y="1184" class="b">Exact / surrogate gradients · fixed / learned θ</text>
<text x="60" y="1225" class="s">Published BRF SHD: 91.7 ± 0.8% · reproduced closely.</text>
<text x="60" y="1258" class="s">Final archive paper follows the complete evidence and review.</text>
<text x="38" y="1342" class="k">24 CHECKS PASS · FULL SHD PRIMARY COMPLETE</text>
<a href="https://analysis.prosodylabs.com.au/graded-resonators/contents/"><text x="38" y="1370" class="small">6 September 2026 · open the live analysis</text></a>
</svg>
